<?xml version="1.0" standalone="no"?>
<!DOCTYPE svg PUBLIC "-//W3C//DTD SVG 20010904//EN"
 "http://www.w3.org/TR/2001/REC-SVG-20010904/DTD/svg10.dtd">
<svg version="1.0" xmlns="http://www.w3.org/2000/svg"
 width="200.000000pt" height="125.000000pt" viewBox="0 0 200.000000 125.000000"
 preserveAspectRatio="xMidYMid meet">
<metadata>
Created by potrace 1.16, written by Peter Selinger 2001-2019
</metadata>
<g transform="translate(0.000000,125.000000) scale(0.100000,-0.100000)"
fill="#000000" stroke="none">
<path d="M1437 1219 c-9 -5 -24 -24 -33 -41 -41 -79 35 -166 120 -138 104 34
78 191 -31 190 -21 0 -46 -5 -56 -11z"/>
<path d="M285 976 c-49 -49 -40 -122 18 -152 96 -50 184 70 108 147 -38 38
-91 40 -126 5z"/>
<path d="M1115 981 l-60 -18 -3 -366 -2 -367 75 0 75 0 0 385 c0 302 -3 385
-12 384 -7 0 -40 -8 -73 -18z"/>
<path d="M1295 976 c-32 -32 -40 -69 -25 -107 17 -40 46 -59 92 -59 52 0 88
33 95 87 5 37 2 45 -25 73 -40 39 -101 42 -137 6z"/>
<path d="M333 739 l-63 -20 0 -304 c0 -293 -5 -355 -31 -355 -6 0 -29 16 -51
36 -32 29 -45 34 -66 29 -38 -9 -52 -24 -52 -51 0 -41 51 -64 140 -64 97 0
154 26 184 85 20 37 21 60 24 353 3 253 1 312 -10 311 -7 0 -41 -10 -75 -20z"/>
<path d="M1343 739 l-63 -20 0 -244 0 -245 75 0 75 0 0 265 c0 206 -3 265 -12
264 -7 0 -41 -10 -75 -20z"/>
<path d="M1625 751 c-80 -21 -134 -66 -135 -112 0 -38 30 -61 76 -57 40 3 46
10 66 78 13 44 14 45 59 48 58 4 76 -15 85 -89 l6 -56 -92 -32 c-146 -51 -194
-89 -206 -163 -15 -88 60 -154 166 -146 37 3 67 12 87 26 38 27 43 27 43 2 0
-18 7 -20 76 -20 l75 0 -3 218 c-3 242 -4 245 -72 283 -31 18 -59 23 -121 25
-44 2 -93 0 -110 -5z m153 -333 l3 -76 -34 -21 c-39 -24 -79 -27 -96 -8 -21
26 -24 75 -7 103 19 28 105 86 121 81 5 -2 11 -38 13 -79z"/>
<path d="M500 549 c0 -230 6 -253 73 -297 58 -39 146 -38 205 1 l42 27 0 -25
c0 -24 2 -25 75 -25 l75 0 0 260 0 261 -72 -3 -73 -3 -5 -200 -5 -199 -34 -23
c-44 -30 -76 -29 -106 2 -25 24 -25 25 -25 225 l0 200 -75 0 -75 0 0 -201z"/>
</g>
</svg>
